# xmcd
#
# Track frame offsets: 
#        150
#        24266
#        50185
#        70219
#        94130
#        128246
#        159028
#        178654
#        192089
#        221443
#
# Disc length: 3942 seconds
#
# Revision: 1
# Processed by: cddbd v1.5.2PL0 Copyright (c) Steve Scherf et al.
# Submitted via: ExactAudioCopy v0.99pb4
#
DISCID=830f640a
DTITLE=Bruce Springsteen - Rotterdam, 6-19-05(Be True Version-Disc 2)
DYEAR=2005
DGENRE=Rock and Roll
TTITLE0=The Rising
TTITLE1=Further On Up The Road
TTITLE2=Jesus Was An Only Son
TTITLE3=This Hard Land
TTITLE4=The Hitter
TTITLE5=Matamoros Banks
TTITLE6=Ramrod
TTITLE7=Bobby Jean
TTITLE8=Land Of Hope And Dreams
TTITLE9=The Promised Land - Dream Baby Dream
EXTD=
EXTT0=
EXTT1=
EXTT2=
EXTT3=
EXTT4=
EXTT5=
EXTT6=
EXTT7=
EXTT8=
EXTT9=
PLAYORDER=
